<svg id="Capa_1" enable-background="new 0 0 512 512" height="512" viewBox="0 0 512 512" width="512" xmlns="http://www.w3.org/2000/svg"><path d="m457.71 0h-403.42c-4.151 0-7.515 3.364-7.515 7.515v69.139c0 15.193 12.361 27.554 27.554 27.554h75.837v13.199c0 4.151 3.364 7.515 7.515 7.515h53.502v12.326c0 8.847 6.592 16.164 15.118 17.348v156.252c0 4.151 3.364 7.515 7.515 7.515s7.515-3.364 7.515-7.515v-156.067h29.341v327.521c0 8.089-6.581 14.669-14.67 14.669s-14.67-6.58-14.67-14.669v-141.397c0-4.151-3.364-7.515-7.515-7.515s-7.515 3.364-7.515 7.515v141.396c-.002 16.376 13.321 29.699 29.698 29.699s29.7-13.323 29.7-29.699v-327.707c8.526-1.183 15.118-8.501 15.118-17.348v-12.326h53.502c4.151 0 7.515-3.364 7.515-7.515v-13.199h75.837c15.193 0 27.554-12.361 27.554-27.554v-69.137c-.001-4.151-3.365-7.515-7.516-7.515zm-7.514 30.636h-316.713c-4.151 0-7.515 3.364-7.515 7.515s3.364 7.515 7.515 7.515h316.712v30.988c0 6.906-5.618 12.524-12.525 12.524h-75.837v-11.913c0-4.151-3.364-7.515-7.515-7.515h-35.599c-4.151 0-7.515 3.364-7.515 7.515s3.364 7.515 7.515 7.515h28.084v25.112h-53.502c-4.151 0-7.515 3.364-7.515 7.515v19.84c0 1.382-1.123 2.505-2.505 2.505h-54.568c-1.382 0-2.505-1.123-2.505-2.505v-19.84c0-4.151-3.364-7.515-7.515-7.515h-53.502v-25.112h123.468c4.151 0 7.515-3.364 7.515-7.515s-3.364-7.515-7.515-7.515h-130.979c-4.151 0-7.515 3.364-7.515 7.515v11.913h-75.836c-6.906 0-12.524-5.618-12.524-12.524v-30.989h41.62c4.151 0 7.515-3.364 7.515-7.515s-3.364-7.515-7.515-7.515h-41.62v-15.606h388.391z"/></svg>