<svg width="199" height="123" viewBox="0 0 199 123" fill="none" xmlns="http://www.w3.org/2000/svg">
<path d="M44.6858 122.479C41.6581 122.097 38.8744 120.697 36.6404 118.434C34.3995 116.164 33.3172 113.994 32.8013 110.737L32.4941 108.796L16.384 108.748L0.273956 108.701L27.2322 72.6955L54.1903 36.6897L63.6018 49.2589C92.9385 88.4383 94.7541 90.8358 94.9638 90.6721C95.0812 90.5804 98.3605 88.1167 102.251 85.1972L109.325 79.8889L96.4724 62.724C88.3085 51.8203 83.678 45.4852 83.7782 45.3564C83.865 45.2449 91.4443 35.1205 100.621 22.8577C109.798 10.5949 117.347 0.603227 117.398 0.65394C117.449 0.704652 135.667 25.036 157.882 54.7237L198.274 108.701L180.063 108.748C169.936 108.774 161.852 108.867 161.852 108.957C161.852 109.078 165.898 120.249 166.575 121.994C166.688 122.286 166.555 122.318 165.227 122.318H163.753L162.591 119.074L161.429 115.829L154.961 115.878L148.494 115.926L147.337 119.076L146.179 122.226L144.698 122.279L143.217 122.332L145.689 115.61C147.048 111.912 148.162 108.866 148.164 108.841C148.165 108.814 143.318 108.793 137.394 108.793H126.621L131.986 114.213C134.936 117.194 137.929 120.237 138.638 120.976L139.926 122.318H137.97H136.015L130.207 116.188L124.4 110.058L124.351 116.188L124.302 122.318H122.825H121.347V115.556V108.793H116.799C112.458 108.793 112.225 108.811 111.698 109.188C111.015 109.675 108.855 110.452 108.17 110.457C107.891 110.459 107.662 110.498 107.662 110.544C107.662 110.589 109.413 113.236 111.556 116.426L115.45 122.226L113.653 122.279C112.617 122.31 111.777 122.254 111.669 122.146C111.567 122.044 109.851 119.435 107.857 116.35L104.231 110.739L102.063 110.687L99.8932 110.635V116.477V122.318H98.4135H96.9339V115.556V108.794H94.7331H92.5319L92.4084 109.952C92.2159 111.758 91.6229 113.731 90.783 115.361C89.7005 117.461 87.2635 119.896 85.1505 120.989C79.2802 124.025 71.9467 122.808 67.6965 118.09C65.7404 115.919 64.7196 113.745 64.2428 110.736L63.9354 108.794H62.5235H61.1115L60.9023 110.277C60.4359 113.58 59.084 116.367 56.8934 118.541C54.5989 120.817 51.8578 122.118 48.5531 122.497C46.7039 122.709 46.5029 122.708 44.6858 122.479ZM49.3395 119.82C52.0865 119.298 54.5279 117.717 55.9866 115.515C56.7394 114.379 57.6215 112.021 57.8255 110.6L57.9517 109.72H51.7349H45.518V109.257V108.794H40.5902H35.6622L35.765 110.154C36.1231 114.898 39.6116 118.883 44.2234 119.817C45.859 120.148 47.606 120.149 49.3395 119.82ZM81.2615 119.736C82.9383 119.307 83.7262 118.922 85.1971 117.815C87.5913 116.012 89.0521 113.184 89.403 109.674L89.4909 108.794H78.2252H66.9596L67.0743 109.766C67.6817 114.916 70.6139 118.531 75.1475 119.721C76.9624 120.197 79.4384 120.203 81.2615 119.736ZM160.11 112.268C159.872 111.63 159.49 110.587 159.26 109.949L158.841 108.786L154.939 108.837L151.037 108.887L150.258 111.018C149.83 112.189 149.475 113.21 149.47 113.287C149.464 113.363 151.954 113.425 155.001 113.425H160.541L160.11 112.268Z" fill="#36B4FD"/>
<path d="M43.5757 122.04C38.7481 121.004 34.7732 117.36 33.2758 112.599C32.7538 110.939 32.5651 107.304 32.9013 105.382C33.7229 100.687 36.9226 96.755 41.3957 94.946C43.0858 94.2616 45.6755 93.8767 47.7085 94.0063C50.0421 94.1551 51.5674 94.5521 53.6499 95.552C55.0761 96.2365 55.6513 96.6485 56.8029 97.8093C57.6347 98.6485 58.4616 99.7047 58.8226 100.39L59.434 101.551H57.7915H56.1489L55.3665 100.439C52.083 95.7752 44.2792 94.9721 39.6332 98.8203C36.7028 101.247 35.3335 104.652 35.5513 108.97C35.7272 112.455 36.9115 115.114 39.2214 117.208C41.3248 119.115 43.6076 119.935 46.8008 119.931C49.003 119.928 50.6241 119.606 52.048 118.892C55.3836 117.219 57.3848 114.24 57.9909 110.045L58.0916 109.35H51.8011H45.5107V108.235V107.122H53.203H60.8952V108.522C60.8952 115.248 56.1967 120.883 49.5885 122.081C47.7922 122.407 45.2027 122.39 43.5757 122.04ZM75.0749 122.075C72.2058 121.415 69.8997 120.067 67.8297 117.843C66.3993 116.307 65.4234 114.625 64.7862 112.599C64.2642 110.939 64.0755 107.304 64.4117 105.382C65.6409 98.358 71.9244 93.54 79.2454 94.0083C82.9771 94.2465 85.8233 95.5028 88.3308 98.0183C91.1354 100.831 92.203 103.322 92.3592 107.415C92.478 110.529 92.1454 112.32 91.0172 114.641C89.3053 118.163 86.4832 120.583 82.6745 121.795C81.023 122.319 76.8114 122.475 75.0749 122.075ZM81.2796 119.717C84.1677 119.027 87.1128 116.652 88.3809 113.991C90.0308 110.529 90.03 105.694 88.3792 102.386C86.108 97.8364 81.078 95.548 75.7622 96.6475C71.8459 97.4565 68.9438 100.052 67.6351 103.915C66.9945 105.806 66.8287 109.113 67.2696 111.206C68.0742 115.027 71.1272 118.477 74.6072 119.499C76.7413 120.127 79.225 120.208 81.2796 119.717ZM97.2247 108.235V94.3098H102.478C108.269 94.3098 109.699 94.5058 111.465 95.543C114.197 97.146 115.56 100.187 115.065 103.582C114.565 107.018 112.482 109.209 108.914 110.047L107.647 110.346L111.518 116.158C113.647 119.355 115.39 122.014 115.39 122.066C115.39 122.118 114.619 122.161 113.675 122.161H111.961L108.184 116.313L104.407 110.463H102.206H100.005V116.313V122.161H98.6153H97.2247V108.235ZM107.407 108.038C109.79 107.651 111.097 106.762 111.896 104.986C112.236 104.23 112.313 103.73 112.31 102.294C112.305 99.5831 111.568 98.2616 109.489 97.2354L108.263 96.6304L104.134 96.5691L100.005 96.5068V102.371V108.235L103.11 108.234C104.818 108.233 106.752 108.145 107.407 108.038ZM121.506 108.235V94.3098H122.895H124.282L124.33 100.813L124.379 107.318L130.383 100.813L136.386 94.3098H138.156H139.926L139.381 94.9048C139.082 95.2314 136.106 98.358 132.767 101.852C129.428 105.346 126.696 108.286 126.696 108.384C126.696 108.483 129.708 111.622 133.388 115.362L140.08 122.161H138.219H136.358L130.482 115.987C127.251 112.592 124.535 109.786 124.447 109.752C124.358 109.718 124.287 112.496 124.287 115.926V122.161H122.897H121.506V108.235ZM143.613 121.929C143.661 121.801 144.85 118.564 146.255 114.734C147.66 110.905 149.913 104.763 151.263 101.087L153.717 94.4023L155.189 94.349L156.661 94.2958L159.223 101.312C160.633 105.171 162.899 111.371 164.26 115.09C165.62 118.81 166.733 121.926 166.733 122.015C166.733 122.104 166.135 122.153 165.403 122.123L164.074 122.068L162.935 118.912L161.797 115.755L155.213 115.707L148.631 115.658L147.452 118.909L146.273 122.161H144.898C143.875 122.161 143.547 122.101 143.613 121.929ZM160.801 113.251C160.801 112.994 155.416 98.147 155.262 97.9801C155.169 97.8786 152.14 105.933 149.539 113.202C149.473 113.385 150.669 113.434 155.129 113.434C158.738 113.434 160.801 113.368 160.801 113.251ZM73.8701 91.3694V90.286L77.6993 87.888C79.8054 86.5692 81.6404 85.4232 81.7771 85.3415C81.9761 85.2227 82.0258 85.4697 82.0258 86.5771V87.9611L78.0192 90.207C75.8156 91.4422 73.9805 92.4526 73.9413 92.4526C73.9021 92.4526 73.8701 91.9653 73.8701 91.3694Z" fill="#020304"/>
</svg>
