<svg width="120" height="150" viewBox="30 0 150 150" fill="none" xmlns="http://www.w3.org/2000/svg">
<path d="M49.6376 130.137C46.6132 129.756 43.8325 128.36 41.6009 126.104C39.3625 123.84 38.2813 121.676 37.766 118.428L37.4591 116.493L21.3665 116.445L5.27396 116.398L32.2029 80.4934L59.1318 44.5886L68.5331 57.1225C97.8379 96.192 99.6515 98.5828 99.861 98.4195C99.9783 98.3281 103.254 95.8713 107.14 92.96L114.207 87.6666L101.368 70.5499C93.2129 59.6767 88.5875 53.3594 88.6876 53.231C88.7743 53.1198 96.3453 43.0238 105.512 30.7954C114.679 18.567 122.22 8.60337 122.271 8.65394C122.322 8.70451 140.52 32.9676 162.711 62.572L203.059 116.398L184.868 116.445C174.752 116.471 166.677 116.563 166.677 116.653C166.677 116.774 170.718 127.913 171.394 129.654C171.507 129.945 171.374 129.977 170.048 129.977H168.576L167.415 126.742L166.254 123.506L159.793 123.555L153.333 123.603L152.177 126.744L151.021 129.885L149.541 129.938L148.062 129.991L150.531 123.287C151.889 119.6 153.001 116.562 153.003 116.537C153.004 116.511 148.163 116.49 142.245 116.49H131.484L136.843 121.894C139.79 124.867 142.78 127.901 143.488 128.638L144.774 129.977H142.821H140.868L135.066 123.864L129.265 117.751L129.216 123.864L129.167 129.977H127.692H126.216V123.234V116.49H121.672C117.336 116.49 117.103 116.508 116.577 116.883C115.895 117.369 113.737 118.144 113.053 118.149C112.774 118.151 112.545 118.19 112.545 118.236C112.545 118.281 114.295 120.92 116.435 124.101L120.325 129.885L118.53 129.938C117.495 129.969 116.656 129.913 116.548 129.805C116.446 129.703 114.732 127.102 112.74 124.025L109.118 118.43L106.952 118.378L104.785 118.326V124.152V129.977H103.307H101.829V123.234V116.491H99.6306H97.4317L97.3084 117.645C97.1161 119.446 96.5237 121.414 95.6847 123.039C94.6034 125.133 92.1691 127.561 90.0584 128.651C84.1944 131.679 76.8689 130.465 72.6233 125.761C70.6693 123.596 69.6496 121.428 69.1734 118.427L68.8663 116.491H67.4559H66.0455L65.8365 117.969C65.3706 121.263 64.0202 124.042 61.8319 126.21C59.5399 128.48 56.8018 129.777 53.5007 130.155C51.6535 130.367 51.4527 130.366 49.6376 130.137L49.6376 130.137ZM54.2862 127.486C57.0303 126.965 59.469 125.389 60.9261 123.193C61.6781 122.06 62.5592 119.709 62.763 118.292L62.8891 117.414H56.679H50.4689V116.952V116.491H45.5464H40.6238L40.7265 117.847C41.0842 122.577 44.5689 126.551 49.1757 127.483C50.8095 127.813 52.5546 127.814 54.2862 127.486V127.486ZM86.1736 127.402C87.8486 126.974 88.6356 126.59 90.1049 125.486C92.4965 123.688 93.9557 120.868 94.3062 117.368L94.394 116.491H83.1406H71.8872L72.0018 117.46C72.6085 122.595 75.5375 126.2 80.0662 127.387C81.8792 127.862 84.3525 127.868 86.1736 127.402V127.402ZM164.936 119.955C164.699 119.319 164.317 118.279 164.087 117.642L163.669 116.483L159.771 116.533L155.873 116.583L155.095 118.708C154.668 119.876 154.313 120.894 154.308 120.971C154.302 121.047 156.789 121.109 159.833 121.109H165.367L164.936 119.955Z" fill="#36B4FD"/>
<path d="M48.5403 129.857C43.7284 128.826 39.7665 125.2 38.274 120.463C37.7537 118.811 37.5656 115.194 37.9007 113.282C38.7197 108.61 41.9089 104.698 46.3674 102.898C48.052 102.217 50.6332 101.834 52.6596 101.963C54.9855 102.111 56.5059 102.506 58.5816 103.501C60.0031 104.182 60.5764 104.592 61.7242 105.747C62.5533 106.582 63.3775 107.633 63.7374 108.315L64.3468 109.47H62.7096H61.0724L60.2925 108.364C57.0198 103.723 49.2415 102.924 44.6107 106.753C41.6898 109.168 40.325 112.556 40.5421 116.852C40.7174 120.32 41.8978 122.965 44.2002 125.049C46.2967 126.946 48.5721 127.762 51.7548 127.758C53.9498 127.755 55.5656 127.435 56.9849 126.725C60.3096 125.06 62.3042 122.096 62.9084 117.922L63.0087 117.23H56.7388H50.4689V116.121V115.013H58.1361H65.8032V116.406C65.8032 123.099 61.12 128.706 54.5334 129.898C52.743 130.222 50.162 130.205 48.5403 129.857V129.857ZM79.9366 129.892C77.0768 129.235 74.7783 127.894 72.715 125.681C71.2893 124.152 70.3166 122.479 69.6815 120.463C69.1612 118.811 68.9731 115.194 69.3082 113.282C70.5334 106.293 76.7963 101.499 84.0934 101.965C87.8129 102.202 90.6498 103.452 93.1491 105.955C95.9446 108.754 97.0087 111.232 97.1644 115.305C97.2828 118.403 96.9513 120.185 95.8268 122.495C94.1205 125.999 91.3076 128.407 87.5113 129.613C85.8652 130.135 81.6674 130.29 79.9366 129.892V129.892ZM86.121 127.545C88.9996 126.859 91.9351 124.496 93.1991 121.848C94.8436 118.403 94.8428 113.592 93.1974 110.301C90.9336 105.774 85.92 103.497 80.6216 104.591C76.7181 105.396 73.8255 107.979 72.5211 111.822C71.8825 113.704 71.7173 116.994 72.1568 119.077C72.9587 122.879 76.0018 126.312 79.4704 127.329C81.5975 127.953 84.0731 128.034 86.121 127.545H86.121ZM102.014 116.121V102.265H107.25C113.022 102.265 114.448 102.46 116.208 103.492C118.931 105.087 120.289 108.113 119.796 111.491C119.298 114.91 117.221 117.09 113.665 117.924L112.402 118.221L116.261 124.004C118.383 127.185 120.12 129.831 120.12 129.883C120.12 129.935 119.351 129.977 118.411 129.977L116.702 129.977L112.937 124.158L109.173 118.338H106.979H104.785V124.158V129.977H103.4H102.014V116.121ZM112.163 115.925C114.538 115.54 115.841 114.655 116.637 112.888C116.976 112.136 117.053 111.638 117.05 110.209C117.045 107.512 116.31 106.197 114.238 105.176L113.016 104.574L108.901 104.513L104.785 104.451V110.286V116.121L107.88 116.12C109.582 116.119 111.51 116.031 112.163 115.925V115.925ZM126.216 116.121V102.265H127.6H128.983L129.031 108.736L129.08 115.208L135.064 108.736L141.047 102.265H142.812H144.576L144.033 102.857C143.735 103.182 140.768 106.293 137.44 109.77C134.112 113.246 131.389 116.171 131.389 116.269C131.389 116.367 134.391 119.491 138.059 123.212L144.729 129.977H142.874H141.019L135.163 123.834C131.942 120.456 129.235 117.664 129.147 117.63C129.059 117.596 128.988 120.36 128.988 123.773V129.977H127.602H126.216L126.216 116.121ZM148.251 129.746C148.299 129.619 149.484 126.398 150.884 122.587C152.284 118.777 154.53 112.666 155.876 109.008L158.322 102.357L159.789 102.304L161.256 102.251L163.81 109.232C165.215 113.072 167.474 119.241 168.83 122.942C170.186 126.643 171.295 129.743 171.295 129.832C171.295 129.921 170.699 129.969 169.97 129.939L168.645 129.885L167.51 126.744L166.375 123.603L159.813 123.555L153.252 123.507L152.077 126.742L150.902 129.977H149.532C148.512 129.977 148.185 129.918 148.251 129.746V129.746ZM165.383 121.112C165.383 120.856 160.015 106.083 159.862 105.917C159.769 105.816 156.75 113.83 154.157 121.063C154.092 121.245 155.284 121.294 159.729 121.294C163.326 121.294 165.383 121.228 165.383 121.112V121.112ZM78.7357 99.3392V98.2612L82.5524 95.8752C84.6516 94.5629 86.4806 93.4227 86.6169 93.3414C86.8152 93.2232 86.8647 93.4689 86.8647 94.5708V95.9479L82.8712 98.1826C80.6748 99.4116 78.8457 100.417 78.8067 100.417C78.7676 100.417 78.7357 99.9321 78.7357 99.3392Z" fill="#020304"/>
</svg>
