<svg viewBox="0 -3 487.98317 487" xmlns="http://www.w3.org/2000/svg"><path d="m479.984375 272.476562h-8.796875c-1.039062-5.097656-3.078125-9.824218-5.859375-14.019531l6.257813-6.253906c3.125-3.125 3.125-8.1875 0-11.3125s-8.1875-3.125-11.3125 0l-6.261719 6.257813c-4.191407-2.777344-8.917969-4.808594-14.011719-5.847657v-8.808593c0-4.421876-3.578125-8-8-8s-8 3.578124-8 8v8h-16v-8c0-4.421876-3.578125-8-8-8s-8 3.578124-8 8v8h-16v-8c0-4.421876-3.578125-8-8-8s-8 3.578124-8 8v8h-16v-8c0-4.421876-3.578125-8-8-8s-8 3.578124-8 8v8h-16v-8c0-4.421876-3.578125-8-8-8s-8 3.578124-8 8v8h-16v-16c0-3.203126-1.90625-6.09375-4.851562-7.351563l-56-24c-.992188-.429687-2.0625-.648437-3.148438-.648437h-16v-48c0-13.234376-10.765625-24-24-24h-82.507812c-5.304688 0-10.53125 1.789062-14.742188 5.054687l-61.484375 47.828125c-5.890625 4.578125-9.265625 11.484375-9.265625 18.945312v85.695313l-5.179688 4.382813c-2.671874 2.265624-3.554687 6.015624-2.171874 9.242187l24 56c1.257812 2.945313 4.148437 4.851563 7.351562 4.851563h184c1.085938 0 2.15625-.21875 3.148438-.648438l56-24c2.945312-1.257812 4.851562-4.148438 4.851562-7.351562h16v7.976562c0 4.421875 3.578125 8 8 8s8-3.578125 8-8v-7.976562h16v7.976562c0 4.421875 3.578125 8 8 8s8-3.578125 8-8v-7.976562h16v7.976562c0 4.421875 3.578125 8 8 8s8-3.578125 8-8v-7.976562h16v7.976562c0 4.421875 3.578125 8 8 8s8-3.578125 8-8v-7.976562h16v7.976562c0 4.421875 3.578125 8 8 8s8-3.578125 8-8v-8.785156c5.097656-1.039063 9.832031-3.078125 14.027344-5.859375l6.246094 6.246093c1.5625 1.5625 3.609374 2.34375 5.65625 2.34375 2.046874 0 4.09375-.78125 5.65625-2.34375 3.125-3.125 3.125-8.1875 0-11.3125l-6.25-6.25c2.785156-4.195312 4.816406-8.929687 5.855468-14.03125h8.792969c4.421875 0 8-3.578124 8-8 0-4.421874-3.578125-8-8-8zm-352.476563-31.984374 9.304688 1.242187c.871094.25 1.691406.601563 2.527344.921875.742187.285156 1.511718.515625 2.222656.851562.886719.417969 1.699219.941407 2.535156 1.433594.65625.386719 1.347656.722656 1.972656 1.152344.808594.558594 1.53125 1.214844 2.28125 1.839844.566407.472656 1.175782.898437 1.707032 1.40625.722656.691406 1.347656 1.472656 2.003906 2.230468.460938.53125.972656 1.023438 1.398438 1.585938.621093.816406 1.128906 1.710938 1.667968 2.582031.359375.582031.773438 1.121094 1.097656 1.726563.496094.929687.863282 1.921875 1.269532 2.902344.25.609374.566406 1.183593.78125 1.8125.382812 1.113281.621094 2.28125.878906 3.441406.117188.535156.308594 1.046875.398438 1.59375.292968 1.722656.445312 3.488281.445312 5.277344 0 1.789062-.152344 3.554687-.445312 5.277343-.089844.539063-.277344 1.046875-.398438 1.582031-.257812 1.164063-.496094 2.335938-.878906 3.453126-.210938.617187-.523438 1.1875-.773438 1.789062-.40625.984375-.777344 1.988281-1.277344 2.925781-.324218.601563-.738281 1.144531-1.097656 1.722657-.539062.875-1.046875 1.769531-1.667968 2.585937-.425782.5625-.9375 1.054687-1.398438 1.585937-.65625.757813-1.28125 1.539063-2.003906 2.230469-.527344.503907-1.132813.925781-1.695313 1.394531-.753906.628907-1.480469 1.289063-2.296875 1.851563-.617187.425781-1.300781.757813-1.953125 1.140625-.839843.496094-1.65625 1.023438-2.550781 1.445312-.710938.335938-1.480469.566407-2.222656.851563-.878906.335937-1.734375.707031-2.652344.96875l-9.179688 1.195313c-17.414062-.265626-31.507812-14.515626-31.507812-32 0-17.484376 14.09375-31.734376 31.507812-32zm119.429688 48.070312-79.039062 10.5625c.488281-.730469.855468-1.539062 1.304687-2.296875.523437-.882813 1.050781-1.75 1.515625-2.664063.679688-1.332031 1.246094-2.714843 1.800781-4.113281.355469-.902343.75-1.785156 1.054688-2.710937.515625-1.574219.882812-3.199219 1.234375-4.835938.175781-.8125.421875-1.597656.554687-2.425781.398438-2.484375.636719-5.011719.636719-7.585937 0-2.574219-.238281-5.105469-.636719-7.589844-.132812-.824219-.378906-1.609375-.554687-2.425782-.351563-1.632812-.714844-3.257812-1.234375-4.832031-.304688-.929687-.699219-1.808593-1.058594-2.714843-.554687-1.394532-1.117187-2.777344-1.796875-4.109376-.464844-.917968-.992188-1.785156-1.515625-2.667968-.445313-.75-.808594-1.546875-1.292969-2.273438l79.027344 10.542969c.351562.046875.710938.070313 1.0625.070313 8.820312 0 16 7.179687 16 16 0 8.820312-7.179688 16-16 16-.351562 0-.710938.023437-1.0625.070312zm-222.9375-96.242188c0-2.453124 1.15625-4.8125 3.09375-6.320312l61.46875-47.820312c1.40625-1.085938 3.15625-1.6875 4.929688-1.6875h82.507812c4.414062 0 8 3.585937 8 8v48h-16v-32c0-4.421876-3.578125-8-8-8h-56c-1.664062 0-3.296875.523437-4.648438 1.492187l-56 40c-2.101562 1.5-3.351562 3.921875-3.351562 6.507813v50.445312l-16 13.523438zm32 12.289063 50.5625-36.117187h45.4375v24h-40c-1.890625 0-3.726562.671874-5.164062 1.890624l-50.835938 43.015626zm208 110.609375-49.640625 21.273438h-177.085937l-19.59375-45.726563 20.257812-17.136719 15.226562-12.871094c.011719-.011718.011719-.023437.023438-.035156l61.742188-52.230468h99.429687l49.640625 21.273437v15.023437c-.894531-.519531-1.832031-.957031-2.777344-1.386718-.1875-.085938-.359375-.195313-.546875-.277344-1.660156-.71875-3.402343-1.261719-5.191406-1.691406-.410156-.101563-.824219-.183594-1.242187-.265625-1.847657-.371094-3.726563-.636719-5.671876-.667969l-109.03125-14.578125c-.007812 0-.015624 0-.023437 0-3.785156-.914063-7.648437-1.429687-11.515625-1.429687-26.46875 0-48 21.53125-48 48s21.53125 48 48 48c3.859375 0 7.71875-.515626 11.496094-1.425782.011718-.003906.027344-.003906.042968-.003906l109.03125-14.578125c1.945313-.035156 3.824219-.300781 5.671876-.667969.417968-.082031.832031-.167968 1.242187-.265625 1.789063-.433593 3.53125-.976562 5.191406-1.695312.1875-.082031.359375-.1875.546875-.273438.945313-.429687 1.882813-.871093 2.777344-1.386719zm16-58.726562h152c13.210938 0 23.957031 10.730468 23.992188 23.9375 0 .015624-.007813.03125-.007813.046874 0 .019532.011719.035157.011719.054688-.011719 6.589844-2.691406 12.5625-7.015625 16.898438-.003907.007812-.015625.007812-.019531.015624-.007813.007813-.011719.015626-.019532.023438-4.324218 4.320312-10.289062 6.992188-16.863281 7.015625-.027344 0-.050781-.015625-.078125-.015625-.042969 0-.078125.023438-.117188.023438h-31.769531c-.039062 0-.074219-.023438-.113281-.023438-.042969 0-.078125.023438-.117188.023438h-31.769531c-.039062 0-.074219-.023438-.113281-.023438-.042969 0-.078125.023438-.117188.023438h-31.769531c-.039062 0-.074219-.023438-.113281-.023438-.042969 0-.078125.023438-.117188.023438h-31.769531c-.039062 0-.074219-.023438-.113281-.023438-.042969 0-.078125.023438-.117188.023438h-23.882812zm0 0"/><path d="m295.179688 178.8125c7.140624 7.140625 38.789062 37.625 58.304687 37.625 3.539063 0 6.660156-1.042969 9.183594-3.371094.144531-.125.328125-.171875.464843-.308594.046876-.054687.101563-.109374.148438-.164062l50.429688-52.101562h14.449218c10.25 13.660156 26.050782 22.5 43.230469 23.820312.203125.015625.40625.023438.609375.023438 2.007812 0 3.953125-.757813 5.4375-2.132813 1.632812-1.515625 2.5625-3.640625 2.5625-5.867187v-167.84375c0-4.421876-3.578125-8-8-8h-191.359375c-2.320313 0-4.523437 1.007812-6.039063 2.75-1.523437 1.75-2.203124 4.078124-1.882812 6.367187 2.132812 15.109375 9.664062 29.007813 21.210938 39.140625 4.632812 4.0625 9.914062 7.332031 15.523437 9.890625l-48.453125 52.507813c-.238281.253906-.328125.574218-.523438.851562-13.585937 16.867188 26.371094 58.484375 34.703126 66.8125zm-21.0625-55.007812c.917968.304687 1.988281.742187 3.183593 1.289062.695313.324219 1.53125.773438 2.316407 1.183594.640624.328125 1.246093.628906 1.941406 1.015625.855468.476562 1.808594 1.0625 2.746094 1.628906.765624.460937 1.527343.925781 2.34375 1.449219.988281.632812 2.039062 1.347656 3.101562 2.074218.898438.613282 1.820312 1.261719 2.769531 1.945313 1.101563.792969 2.226563 1.625 3.386719 2.507813 1.042969.792968 2.128906 1.65625 3.21875 2.523437 1.179688.941406 2.359375 1.886719 3.585938 2.914063 1.210937 1.015624 2.472656 2.136718 3.730468 3.238281 1.210938 1.0625 2.402344 2.085937 3.65625 3.234375 1.601563 1.472656 3.273438 3.101562 4.9375 4.714844.925782.902343 1.820313 1.71875 2.769532 2.664062.761718.761719 1.414062 1.480469 2.148437 2.234375 1.820313 1.871094 3.636719 3.734375 5.28125 5.53125.96875 1.054687 1.820313 2.054687 2.726563 3.082031 1.320312 1.496094 2.640624 2.988282 3.835937 4.417969.835937 1 1.597656 1.957031 2.375 2.925781 1.109375 1.382813 2.191406 2.75 3.179687 4.058594.664063.875 1.296876 1.730469 1.90625 2.574219.953126 1.3125 1.847657 2.585937 2.675782 3.808593.488281.71875.980468 1.445313 1.425781 2.132813.832031 1.285156 1.570313 2.488281 2.253906 3.648437.300781.507813.636719 1.050782.910157 1.535157.777343 1.382812 1.4375 2.652343 1.996093 3.820312.085938.171875.207031.386719.285157.554688.59375 1.273437 1.03125 2.378906 1.359374 3.351562-7.339843-2.472656-23.683593-12.382812-43.671874-32.363281-20-20.007812-29.914063-36.367188-32.375-43.695312zm136.203124 20.6875c-2.164062 0-4.242187.882812-5.75 2.4375l-41.335937 42.710937c-1.136719-2.453125-2.28125-4.578125-3.25-6.234375-1.894531-3.316406-4.074219-6.625-6.390625-9.886719-.324219-.460937-.667969-.925781-1.003906-1.390625-1.75-2.40625-3.523438-4.738281-5.335938-7-.542968-.683594-1.058594-1.351562-1.621094-2.039062-2.265624-2.753906-4.449218-5.28125-6.535156-7.617188-.664062-.746094-1.328125-1.480468-2.011718-2.226562-3.433594-3.761719-6.359376-6.777344-7.992188-8.410156-1.644531-1.644532-4.683594-4.589844-8.476562-8.050782-.6875-.628906-1.367188-1.242187-2.054688-1.855468-2.4375-2.179688-5.070312-4.460938-7.964844-6.832032-.453125-.371094-.894531-.703125-1.347656-1.0625-2.449219-1.976562-5-3.914062-7.628906-5.816406-.378906-.273438-.753906-.546875-1.132813-.8125-2.578125-1.832031-5.179687-3.550781-7.808593-5.136719-.136719-.085937-.292969-.203125-.429688-.285156-.113281-.070313-.296875-.175781-.421875-.246094-.644531-.382812-1.28125-.773437-1.921875-1.132812-1.75-1-3.96875-2.164063-6.410156-3.242188l44.707031-48.449219c1.359375-1.476562 2.117187-3.414062 2.117187-5.421874v-16h16v48c0 4.421874 3.578126 8 8 8h8c2.125 0 4.15625-.84375 5.65625-2.34375l34.34375-34.34375 11.515626 11.515624-33.359376 35.710938c-1.382812 1.484375-2.15625 3.429688-2.15625 5.460938v8c0 4.421874 3.578126 8 8 8h48v16zm-119.53125-128h173.210938v150.320312c-5.929688-1.6875-11.4375-4.609375-16.148438-8.539062.019532-.019532.027344-.050782.046876-.070313.492187-.480469.824218-1.089844 1.179687-1.683594.179687-.304687.445313-.546875.585937-.875.417969-.96875.65625-2.03125.65625-3.152343v-32c0-4.421876-3.578124-8-8-8h-45.054687l33.539063-35.898438c2.945312-3.148438 2.859374-8.070312-.1875-11.117188l-22.640626-22.640624c-3.125-3.125-8.1875-3.125-11.3125 0l-34.34375 34.34375v-44.6875c0-4.421876-3.578124-8-8-8h-32c-4.421874 0-8 3.578124-8 8v10.867187c-3.539062-1.789063-6.859374-4.023437-9.835937-6.640625-6.28125-5.507812-10.976563-12.492188-13.695313-20.226562zm0 0"/><path d="m312 433.296875v-32.804687c0-22.84375-59.976562-24-72-24s-72 1.15625-72 24v32.804687c-7.578125 1.546875-14.601562 5.28125-20.335938 10.9375-7.523437 7.632813-11.664062 17.671875-11.664062 28.257813 0 4.421874 3.578125 8 8 8h192c4.421875 0 8-3.578126 8-8 0-10.585938-4.140625-20.625-11.742188-28.335938-5.679687-5.59375-12.679687-9.320312-20.257812-10.859375zm-18.226562-32.8125c-.90625.453125-2.011719.925781-3.320313 1.402344-.335937.125-.777344.246093-1.140625.371093-1.082031.371094-2.234375.742188-3.546875 1.109376-.609375.167968-1.316406.335937-1.972656.503906-1.242188.316406-2.539063.628906-3.949219.929687-.824219.179688-1.707031.34375-2.585938.515625-1.445312.277344-2.96875.542969-4.570312.796875-1 .160157-2.027344.3125-3.089844.460938-1.699218.234375-3.507812.445312-5.359375.644531-1.125.121094-2.230469.25-3.410156.355469-2.089844.1875-4.324219.332031-6.582031.464843-1.105469.066407-2.15625.148438-3.300782.199219-3.476562.15625-7.105468.253907-10.945312.253907s-7.46875-.097657-10.949219-.253907c-1.144531-.050781-2.191406-.132812-3.296875-.199219-2.257812-.132812-4.492187-.277343-6.582031-.464843-1.183594-.105469-2.289063-.234375-3.414063-.355469-1.847656-.199219-3.660156-.410156-5.359374-.644531-1.058594-.148438-2.085938-.300781-3.085938-.460938-1.601562-.253906-3.125-.519531-4.570312-.796875-.882813-.167968-1.765626-.339844-2.585938-.515625-1.414062-.300781-2.710938-.613281-3.953125-.933593-.65625-.164063-1.359375-.328126-1.96875-.5-1.316406-.367188-2.46875-.738282-3.554687-1.109376-.359376-.125-.800782-.246093-1.136719-.371093-1.308594-.476563-2.410157-.949219-3.320313-1.402344 6.9375-3.441406 25.511719-7.992187 53.777344-7.992187s46.835938 4.550781 53.773438 7.992187zm-140.40625 64.007813c1.171874-3.320313 3.078124-6.375 5.609374-8.945313 4.617188-4.546875 10.664063-7.054687 17.023438-7.054687 4.421875 0 8-3.578126 8-8v-23.625c1.125.429687 2.292969.832031 3.488281 1.210937.089844.03125.175781.058594.265625.085937 1.601563.503907 3.273438.960938 4.972656 1.386719.484376.125.972657.242188 1.464844.359375 1.667969.398438 3.355469.769532 5.070313 1.097656.167969.03125.332031.066407.5.097657 1.738281.324219 3.488281.613281 5.242187.882812.515625.078125 1.027344.15625 1.542969.226563 1.71875.25 3.433594.476562 5.128906.671875.1875.023437.375.042969.558594.066406 1.714844.191406 3.394531.355469 5.050781.503906.492188.042969.972656.085938 1.457032.125 1.632812.136719 3.234374.261719 4.765624.359375.121094.007813.242188.015625.363282.023438 1.5625.097656 3.039062.171875 4.464844.238281.40625.019531.792968.039063 1.1875.054687 1.382812.054688 2.714843.105469 3.917968.140626h.023438c1.261718.035156 2.367187.050781 3.390625.066406.261719.003906.492187.007812.738281.011718.914062.007813 1.753906.015626 2.40625.015626s1.488281-.007813 2.40625-.015626c.242188-.003906.472656-.007812.734375-.011718 1.023437-.015625 2.128906-.03125 3.394531-.066406h.019532c1.203124-.035157 2.535156-.085938 3.921874-.140626.390626-.015624.777344-.035156 1.183594-.054687 1.425782-.066406 2.902344-.140625 4.464844-.238281.125-.007813.242188-.015625.367188-.023438 1.53125-.097656 3.132812-.222656 4.761718-.359375.488282-.039062.964844-.082031 1.460938-.125 1.652344-.148437 3.332031-.3125 5.046875-.503906.1875-.023437.371093-.042969.558593-.066406 1.695313-.195313 3.410157-.421875 5.128907-.671875.515625-.070313 1.027343-.148438 1.546875-.226563 1.75-.269531 3.503906-.558593 5.242187-.882812.164063-.03125.332031-.066407.496094-.097657 1.71875-.328124 3.40625-.699218 5.070313-1.097656.496093-.117187.980468-.234375 1.46875-.359375 1.695312-.425781 3.367187-.882812 4.972656-1.386719.085937-.027343.175781-.054687.261718-.085937 1.199219-.378906 2.367188-.78125 3.492188-1.210937v23.625c0 4.421874 3.578125 8 8 8 6.359375 0 12.40625 2.507812 16.945312 6.976562 2.578126 2.617188 4.5 5.695312 5.679688 9.023438zm0 0"/></svg>