<svg id="Capa_1" enable-background="new 0 0 512.001 512.001" viewBox="0 0 512.001 512.001" xmlns="http://www.w3.org/2000/svg"><g><path d="m33.245 482.754c38.992 38.993 102.11 38.999 141.108 0 116.625-116.631 77.569-77.556 274.611-274.625l-95.459-31.82-80.001 80.014-17.787-17.787-89.096 38.184-31.003-31.003c-17.545-17.546-46.095-17.545-63.639 0l-42.426 42.426c-16.608 16.608-17.53 42.928-2.765 60.605-32.416 39.343-30.167 97.383 6.457 134.006zm119.895-21.213c-27.27 27.269-71.409 27.273-98.682 0-34.746-34.747-23.838-93.896 21.854-113.479l113.157-48.496 62.823 62.823zm208.47-250.908 31.821 10.607-77.5 77.509-21.213-21.213zm-66.892 109.33-21.213 21.213-54.338-54.337 29.699-12.728c11.424 11.424 39.504 39.504 45.852 45.852zm-243.952-10.606 42.426-42.427c5.849-5.849 15.365-5.848 21.213 0l22.518 22.518-72.429 31.041c-5.382 2.307-10.492 5.064-15.302 8.207-4.249-5.905-3.676-14.088 1.574-19.339z"/><path d="m444.231 146.652h60v30h-60z" transform="matrix(.707 -.707 .707 .707 24.594 382.678)"/><path d="m494.819 13.158c-17.545-17.545-46.094-17.544-63.64 0l-10.606 10.607 21.214 21.213 10.606-10.606c5.85-5.849 15.366-5.849 21.213 0 5.849 5.849 5.849 15.365-.044 21.259l-73.622 74.246 21.302 21.123 73.577-74.201c17.544-17.546 17.544-46.095 0-63.641z"/></g></svg>